<svg xmlns="http://www.w3.org/2000/svg" xmlns:xlink="http://www.w3.org/1999/xlink" width="1080" zoomAndPan="magnify" viewBox="0 0 810 809.999993" height="1080" preserveAspectRatio="xMidYMid meet" version="1.0"><defs><g/><clipPath id="954ced03dd"><path d="M 160.316406 393 L 258.566406 393 L 258.566406 526.71875 L 160.316406 526.71875 Z M 160.316406 393 " clip-rule="nonzero"/></clipPath></defs><g clip-path="url(#954ced03dd)"><path fill="#000000" d="M 233.953125 398.761719 C 230.207031 396.761719 226.265625 395.273438 222.128906 394.304688 C 217.996094 393.339844 213.804688 392.917969 209.558594 393.046875 C 205.195312 392.914062 200.894531 393.359375 196.652344 394.390625 C 192.410156 395.417969 188.378906 396.988281 184.558594 399.105469 C 182.71875 400.1875 180.960938 401.386719 179.277344 402.703125 C 177.597656 404.015625 176.007812 405.4375 174.515625 406.960938 C 173.019531 408.484375 171.632812 410.101562 170.351562 411.808594 C 169.070312 413.515625 167.90625 415.296875 166.859375 417.160156 C 165.8125 419.019531 164.890625 420.941406 164.097656 422.925781 C 163.304688 424.90625 162.644531 426.933594 162.117188 429.003906 C 161.589844 431.070312 161.199219 433.167969 160.949219 435.289062 C 160.699219 437.40625 160.589844 439.535156 160.617188 441.671875 C 161.195312 461.070312 173.546875 478.96875 184.53125 494.542969 C 192.296875 505.609375 200.640625 516.222656 209.558594 526.378906 C 225.054688 508.8125 239.917969 489.546875 250.621094 468.65625 C 255.113281 459.878906 258.515625 451.058594 258.515625 441.277344 C 258.519531 439.128906 258.382812 436.992188 258.105469 434.863281 C 257.828125 432.734375 257.410156 430.632812 256.855469 428.558594 C 256.300781 426.484375 255.613281 424.457031 254.792969 422.472656 C 253.972656 420.488281 253.023438 418.570312 251.953125 416.710938 C 250.878906 414.851562 249.6875 413.070312 248.378906 411.371094 C 247.070312 409.667969 245.65625 408.0625 244.136719 406.546875 C 242.617188 405.03125 241.007812 403.621094 239.300781 402.320312 C 237.597656 401.015625 235.8125 399.832031 233.953125 398.761719 Z M 209.558594 482.332031 C 208.253906 482.332031 206.953125 482.269531 205.652344 482.140625 C 204.355469 482.011719 203.066406 481.820312 201.785156 481.566406 C 200.503906 481.3125 199.242188 480.996094 197.992188 480.617188 C 196.742188 480.234375 195.515625 479.796875 194.3125 479.296875 C 193.105469 478.796875 191.925781 478.238281 190.777344 477.625 C 189.625 477.007812 188.507812 476.335938 187.421875 475.613281 C 186.335938 474.886719 185.289062 474.109375 184.28125 473.28125 C 183.273438 472.453125 182.304688 471.574219 181.382812 470.652344 C 180.460938 469.726562 179.585938 468.761719 178.757812 467.753906 C 177.929688 466.742188 177.152344 465.695312 176.425781 464.609375 C 175.703125 463.523438 175.03125 462.402344 174.417969 461.25 C 173.800781 460.101562 173.246094 458.921875 172.746094 457.714844 C 172.246094 456.507812 171.808594 455.277344 171.429688 454.027344 C 171.050781 452.777344 170.734375 451.511719 170.476562 450.234375 C 170.222656 448.953125 170.03125 447.660156 169.902344 446.359375 C 169.777344 445.0625 169.710938 443.757812 169.710938 442.453125 C 169.710938 441.144531 169.777344 439.84375 169.902344 438.542969 C 170.03125 437.242188 170.222656 435.953125 170.476562 434.671875 C 170.734375 433.390625 171.050781 432.125 171.429688 430.875 C 171.808594 429.625 172.246094 428.398438 172.746094 427.191406 C 173.246094 425.984375 173.800781 424.804688 174.417969 423.652344 C 175.03125 422.5 175.703125 421.382812 176.425781 420.296875 C 177.152344 419.210938 177.929688 418.160156 178.757812 417.152344 C 179.585938 416.144531 180.460938 415.175781 181.382812 414.253906 C 182.304688 413.328125 183.273438 412.453125 184.28125 411.625 C 185.289062 410.796875 186.335938 410.019531 187.421875 409.292969 C 188.507812 408.566406 189.625 407.898438 190.777344 407.28125 C 191.925781 406.664062 193.105469 406.109375 194.3125 405.609375 C 195.515625 405.109375 196.742188 404.667969 197.992188 404.289062 C 199.242188 403.910156 200.503906 403.59375 201.785156 403.339844 C 203.066406 403.082031 204.355469 402.890625 205.652344 402.765625 C 206.953125 402.636719 208.253906 402.570312 209.558594 402.570312 C 210.863281 402.570312 212.167969 402.636719 213.464844 402.765625 C 214.765625 402.890625 216.054688 403.082031 217.332031 403.339844 C 218.613281 403.59375 219.878906 403.910156 221.125 404.289062 C 222.375 404.667969 223.601562 405.109375 224.808594 405.609375 C 226.015625 406.109375 227.191406 406.664062 228.34375 407.28125 C 229.496094 407.898438 230.613281 408.566406 231.699219 409.292969 C 232.78125 410.019531 233.828125 410.796875 234.839844 411.625 C 235.847656 412.453125 236.8125 413.328125 237.734375 414.253906 C 238.660156 415.175781 239.535156 416.144531 240.363281 417.152344 C 241.191406 418.160156 241.964844 419.210938 242.691406 420.296875 C 243.417969 421.382812 244.085938 422.5 244.703125 423.652344 C 245.316406 424.804688 245.875 425.984375 246.375 427.191406 C 246.871094 428.398438 247.3125 429.625 247.691406 430.875 C 248.070312 432.125 248.386719 433.390625 248.640625 434.671875 C 248.894531 435.953125 249.085938 437.242188 249.214844 438.542969 C 249.34375 439.84375 249.40625 441.144531 249.40625 442.453125 C 249.40625 443.757812 249.34375 445.0625 249.214844 446.359375 C 249.085938 447.660156 248.894531 448.953125 248.640625 450.234375 C 248.386719 451.511719 248.070312 452.777344 247.691406 454.027344 C 247.3125 455.277344 246.871094 456.507812 246.375 457.714844 C 245.875 458.921875 245.316406 460.101562 244.703125 461.25 C 244.085938 462.402344 243.417969 463.523438 242.691406 464.609375 C 241.964844 465.695312 241.191406 466.742188 240.363281 467.753906 C 239.535156 468.761719 238.660156 469.726562 237.734375 470.652344 C 236.8125 471.574219 235.847656 472.453125 234.839844 473.28125 C 233.828125 474.109375 232.78125 474.886719 231.699219 475.613281 C 230.613281 476.335938 229.496094 477.007812 228.34375 477.625 C 227.191406 478.238281 226.015625 478.796875 224.808594 479.296875 C 223.601562 479.796875 222.375 480.234375 221.125 480.617188 C 219.878906 480.996094 218.613281 481.3125 217.332031 481.566406 C 216.054688 481.820312 214.765625 482.011719 213.464844 482.140625 C 212.167969 482.269531 210.863281 482.332031 209.558594 482.332031 Z M 209.558594 482.332031 " fill-opacity="1" fill-rule="nonzero"/></g><path fill="#000000" d="M 202.421875 447.808594 L 202.421875 436.144531 C 202.421875 436.144531 226.925781 433.414062 233.257812 446.433594 C 233.324219 446.589844 233.347656 446.753906 233.332031 446.921875 C 233.3125 447.09375 233.257812 447.246094 233.160156 447.386719 C 233.0625 447.527344 232.9375 447.632812 232.785156 447.707031 C 232.636719 447.785156 232.472656 447.816406 232.304688 447.808594 Z M 202.421875 447.808594 " fill-opacity="1" fill-rule="nonzero"/><path fill="#000000" d="M 200.042969 440.726562 C 200.042969 441.039062 200.011719 441.347656 199.953125 441.65625 C 199.890625 441.960938 199.800781 442.257812 199.679688 442.546875 C 199.5625 442.835938 199.414062 443.113281 199.242188 443.371094 C 199.066406 443.632812 198.871094 443.871094 198.648438 444.09375 C 198.429688 444.3125 198.1875 444.511719 197.929688 444.683594 C 197.667969 444.859375 197.394531 445.003906 197.105469 445.125 C 196.816406 445.246094 196.519531 445.335938 196.214844 445.394531 C 195.90625 445.457031 195.597656 445.488281 195.285156 445.488281 C 194.972656 445.488281 194.664062 445.457031 194.359375 445.394531 C 194.050781 445.335938 193.753906 445.246094 193.464844 445.125 C 193.175781 445.003906 192.902344 444.859375 192.640625 444.683594 C 192.382812 444.511719 192.140625 444.3125 191.921875 444.09375 C 191.699219 443.871094 191.503906 443.632812 191.328125 443.371094 C 191.15625 443.113281 191.007812 442.835938 190.890625 442.546875 C 190.769531 442.257812 190.679688 441.960938 190.621094 441.65625 C 190.558594 441.347656 190.527344 441.039062 190.527344 440.726562 C 190.527344 440.414062 190.558594 440.105469 190.621094 439.796875 C 190.679688 439.492188 190.769531 439.191406 190.890625 438.902344 C 191.007812 438.613281 191.15625 438.339844 191.328125 438.082031 C 191.503906 437.820312 191.699219 437.578125 191.921875 437.359375 C 192.140625 437.136719 192.382812 436.941406 192.640625 436.765625 C 192.902344 436.59375 193.175781 436.445312 193.464844 436.328125 C 193.753906 436.207031 194.050781 436.117188 194.359375 436.054688 C 194.664062 435.996094 194.972656 435.964844 195.285156 435.964844 C 195.597656 435.964844 195.90625 435.996094 196.214844 436.054688 C 196.519531 436.117188 196.816406 436.207031 197.105469 436.328125 C 197.394531 436.445312 197.667969 436.59375 197.929688 436.765625 C 198.1875 436.941406 198.429688 437.136719 198.648438 437.359375 C 198.871094 437.578125 199.066406 437.820312 199.242188 438.082031 C 199.414062 438.339844 199.5625 438.613281 199.679688 438.902344 C 199.800781 439.191406 199.890625 439.492188 199.953125 439.796875 C 200.011719 440.105469 200.042969 440.414062 200.042969 440.726562 Z M 200.042969 440.726562 " fill-opacity="1" fill-rule="nonzero"/><path fill="#000000" d="M 184.582031 424 C 185.054688 424 185.507812 424.089844 185.945312 424.273438 C 186.382812 424.453125 186.769531 424.710938 187.105469 425.046875 C 187.4375 425.382812 187.695312 425.765625 187.878906 426.203125 C 188.058594 426.640625 188.148438 427.097656 188.148438 427.570312 L 188.148438 459.597656 L 181.011719 459.597656 L 181.011719 427.570312 C 181.011719 427.097656 181.101562 426.640625 181.285156 426.203125 C 181.464844 425.765625 181.722656 425.382812 182.058594 425.046875 C 182.390625 424.710938 182.777344 424.453125 183.214844 424.273438 C 183.652344 424.089844 184.105469 424 184.582031 424 Z M 184.582031 424 " fill-opacity="1" fill-rule="nonzero"/><path fill="#000000" d="M 234.539062 438.285156 C 235.011719 438.285156 235.464844 438.375 235.902344 438.558594 C 236.339844 438.738281 236.726562 438.996094 237.0625 439.332031 C 237.394531 439.667969 237.652344 440.054688 237.835938 440.492188 C 238.015625 440.929688 238.105469 441.382812 238.105469 441.855469 L 238.105469 459.714844 L 230.96875 459.714844 L 230.96875 441.855469 C 230.96875 441.382812 231.058594 440.929688 231.242188 440.492188 C 231.421875 440.054688 231.679688 439.667969 232.015625 439.332031 C 232.347656 438.996094 232.734375 438.738281 233.171875 438.558594 C 233.609375 438.375 234.066406 438.285156 234.539062 438.285156 Z M 234.539062 438.285156 " fill-opacity="1" fill-rule="nonzero"/><path fill="#000000" d="M 188.148438 454.914062 L 188.148438 447.808594 L 230.96875 447.808594 L 230.96875 454.914062 Z M 188.148438 454.914062 " fill-opacity="1" fill-rule="nonzero"/><g fill="#000000" fill-opacity="1"><g transform="translate(104.942256, 388.079364)"><g><path d="M 27.265625 -61.625 L 27.265625 -32.3125 C 27.265625 -26.226562 28.1875 -21.90625 30.03125 -19.34375 C 31.875 -16.78125 35 -15.5 39.40625 -15.5 C 43.8125 -15.5 46.9375 -16.78125 48.78125 -19.34375 C 50.625 -21.90625 51.546875 -26.226562 51.546875 -32.3125 L 51.546875 -61.625 L 72.8125 -61.625 L 72.8125 -27.15625 C 72.8125 -16.90625 70.144531 -9.515625 64.8125 -4.984375 C 59.488281 -0.460938 51.019531 1.796875 39.40625 1.796875 C 27.789062 1.796875 19.316406 -0.460938 13.984375 -4.984375 C 8.660156 -9.515625 6 -16.90625 6 -27.15625 L 6 -61.625 Z M 27.265625 -61.625 "/></g></g></g><g fill="#000000" fill-opacity="1"><g transform="translate(177.862571, 388.079364)"><g><path d="M 7.203125 0 L 7.203125 -61.625 L 28.46875 -61.625 L 28.46875 -52.734375 L 28.71875 -52.734375 C 28.875 -53.054688 29.128906 -53.457031 29.484375 -53.9375 C 29.847656 -54.414062 30.628906 -55.253906 31.828125 -56.453125 C 33.035156 -57.660156 34.316406 -58.742188 35.671875 -59.703125 C 37.035156 -60.671875 38.800781 -61.535156 40.96875 -62.296875 C 43.132812 -63.054688 45.335938 -63.4375 47.578125 -63.4375 C 49.898438 -63.4375 52.179688 -63.113281 54.421875 -62.46875 C 56.660156 -61.832031 58.300781 -61.191406 59.34375 -60.546875 L 61.03125 -59.59375 L 52.140625 -41.5625 C 49.492188 -43.8125 45.8125 -44.9375 41.09375 -44.9375 C 38.53125 -44.9375 36.328125 -44.375 34.484375 -43.25 C 32.640625 -42.125 31.335938 -40.757812 30.578125 -39.15625 C 29.816406 -37.5625 29.273438 -36.203125 28.953125 -35.078125 C 28.628906 -33.960938 28.46875 -33.082031 28.46875 -32.4375 L 28.46875 0 Z M 7.203125 0 "/></g></g></g><g fill="#000000" fill-opacity="1"><g transform="translate(231.801823, 388.079364)"><g><path d="M 70.640625 -53.9375 C 76.410156 -47.613281 79.296875 -39.882812 79.296875 -30.75 C 79.296875 -21.625 76.410156 -13.914062 70.640625 -7.625 C 64.878906 -1.34375 57.550781 1.796875 48.65625 1.796875 C 40.488281 1.796875 33.757812 -1.125 28.46875 -6.96875 L 28.234375 -6.96875 L 28.234375 0 L 7.203125 0 L 7.203125 -103.328125 L 28.46875 -103.328125 L 28.46875 -55.75 C 33.757812 -60.875 40.488281 -63.4375 48.65625 -63.4375 C 57.550781 -63.4375 64.878906 -60.269531 70.640625 -53.9375 Z M 52.734375 -20.359375 C 55.378906 -23.046875 56.703125 -26.507812 56.703125 -30.75 C 56.703125 -35 55.320312 -38.484375 52.5625 -41.203125 C 49.800781 -43.929688 46.378906 -45.296875 42.296875 -45.296875 C 38.285156 -45.296875 34.898438 -43.929688 32.140625 -41.203125 C 29.378906 -38.484375 28 -35 28 -30.75 C 28 -26.59375 29.335938 -23.148438 32.015625 -20.421875 C 34.703125 -17.703125 38.128906 -16.34375 42.296875 -16.34375 C 46.617188 -16.34375 50.097656 -17.679688 52.734375 -20.359375 Z M 52.734375 -20.359375 "/></g></g></g><g fill="#000000" fill-opacity="1"><g transform="translate(307.965717, 388.079364)"><g><path d="M 11.40625 -7.625 C 5.644531 -13.914062 2.765625 -21.625 2.765625 -30.75 C 2.765625 -39.882812 5.644531 -47.613281 11.40625 -53.9375 C 17.175781 -60.269531 24.507812 -63.4375 33.40625 -63.4375 C 41.570312 -63.4375 48.296875 -60.875 53.578125 -55.75 L 53.578125 -61.625 L 74.84375 -61.625 L 74.84375 0 L 53.828125 0 L 53.828125 -6.96875 L 53.578125 -6.96875 C 48.296875 -1.125 41.570312 1.796875 33.40625 1.796875 C 24.507812 1.796875 17.175781 -1.34375 11.40625 -7.625 Z M 29.484375 -41.203125 C 26.722656 -38.484375 25.34375 -35 25.34375 -30.75 C 25.34375 -26.507812 26.664062 -23.046875 29.3125 -20.359375 C 31.957031 -17.679688 35.441406 -16.34375 39.765625 -16.34375 C 43.929688 -16.34375 47.351562 -17.703125 50.03125 -20.421875 C 52.71875 -23.148438 54.0625 -26.59375 54.0625 -30.75 C 54.0625 -35 52.679688 -38.484375 49.921875 -41.203125 C 47.160156 -43.929688 43.773438 -45.296875 39.765625 -45.296875 C 35.679688 -45.296875 32.253906 -43.929688 29.484375 -41.203125 Z M 29.484375 -41.203125 "/></g></g></g><g fill="#000000" fill-opacity="1"><g transform="translate(384.129622, 388.079364)"><g><path d="M 7.203125 0 L 7.203125 -61.625 L 28.46875 -61.625 L 28.46875 -55.140625 L 28.71875 -55.140625 C 34.238281 -60.671875 40.125 -63.4375 46.375 -63.4375 C 49.414062 -63.4375 52.4375 -63.035156 55.4375 -62.234375 C 58.445312 -61.429688 61.332031 -60.1875 64.09375 -58.5 C 66.851562 -56.820312 69.09375 -54.441406 70.8125 -51.359375 C 72.539062 -48.273438 73.40625 -44.691406 73.40625 -40.609375 L 73.40625 0 L 52.140625 0 L 52.140625 -34.84375 C 52.140625 -38.039062 51.117188 -40.84375 49.078125 -43.25 C 47.035156 -45.65625 44.375 -46.859375 41.09375 -46.859375 C 37.882812 -46.859375 34.976562 -45.613281 32.375 -43.125 C 29.769531 -40.644531 28.46875 -37.882812 28.46875 -34.84375 L 28.46875 0 Z M 7.203125 0 "/></g></g></g><g fill="#000000" fill-opacity="1"><g transform="translate(457.650595, 388.079364)"><g><path d="M 11.40625 -7.625 C 5.644531 -13.914062 2.765625 -21.625 2.765625 -30.75 C 2.765625 -39.882812 5.644531 -47.613281 11.40625 -53.9375 C 17.175781 -60.269531 24.507812 -63.4375 33.40625 -63.4375 C 41.570312 -63.4375 48.296875 -60.875 53.578125 -55.75 L 53.578125 -61.625 L 74.84375 -61.625 L 74.84375 0 L 53.828125 0 L 53.828125 -6.96875 L 53.578125 -6.96875 C 48.296875 -1.125 41.570312 1.796875 33.40625 1.796875 C 24.507812 1.796875 17.175781 -1.34375 11.40625 -7.625 Z M 29.484375 -41.203125 C 26.722656 -38.484375 25.34375 -35 25.34375 -30.75 C 25.34375 -26.507812 26.664062 -23.046875 29.3125 -20.359375 C 31.957031 -17.679688 35.441406 -16.34375 39.765625 -16.34375 C 43.929688 -16.34375 47.351562 -17.703125 50.03125 -20.421875 C 52.71875 -23.148438 54.0625 -26.59375 54.0625 -30.75 C 54.0625 -35 52.679688 -38.484375 49.921875 -41.203125 C 47.160156 -43.929688 43.773438 -45.296875 39.765625 -45.296875 C 35.679688 -45.296875 32.253906 -43.929688 29.484375 -41.203125 Z M 29.484375 -41.203125 "/></g></g></g><g fill="#000000" fill-opacity="1"><g transform="translate(264.621554, 459.492632)"><g><path d="M 69.5625 -27.875 L 24.875 -27.875 C 24.875 -23.550781 26.273438 -20.347656 29.078125 -18.265625 C 31.878906 -16.179688 34.921875 -15.140625 38.203125 -15.140625 C 41.648438 -15.140625 44.375 -15.597656 46.375 -16.515625 C 48.375 -17.441406 50.65625 -19.265625 53.21875 -21.984375 L 68.59375 -14.296875 C 62.1875 -3.566406 51.535156 1.796875 36.640625 1.796875 C 27.347656 1.796875 19.378906 -1.382812 12.734375 -7.75 C 6.085938 -14.113281 2.765625 -21.78125 2.765625 -30.75 C 2.765625 -39.726562 6.085938 -47.421875 12.734375 -53.828125 C 19.378906 -60.234375 27.347656 -63.4375 36.640625 -63.4375 C 46.410156 -63.4375 54.359375 -60.613281 60.484375 -54.96875 C 66.617188 -49.320312 69.6875 -41.25 69.6875 -30.75 C 69.6875 -29.3125 69.644531 -28.351562 69.5625 -27.875 Z M 25.46875 -39.640625 L 48.890625 -39.640625 C 48.410156 -42.847656 47.148438 -45.3125 45.109375 -47.03125 C 43.066406 -48.757812 40.445312 -49.625 37.25 -49.625 C 33.71875 -49.625 30.910156 -48.703125 28.828125 -46.859375 C 26.742188 -45.015625 25.625 -42.609375 25.46875 -39.640625 Z M 25.46875 -39.640625 "/></g></g></g><g fill="#000000" fill-opacity="1"><g transform="translate(331.174786, 459.492632)"><g><path d="M 34 -63.4375 C 37.519531 -63.4375 41.003906 -63.035156 44.453125 -62.234375 C 47.898438 -61.429688 50.460938 -60.628906 52.140625 -59.828125 L 54.65625 -58.625 L 47.703125 -44.6875 C 42.890625 -47.25 38.320312 -48.53125 34 -48.53125 C 31.59375 -48.53125 29.890625 -48.269531 28.890625 -47.75 C 27.890625 -47.226562 27.390625 -46.25 27.390625 -44.8125 C 27.390625 -44.488281 27.425781 -44.164062 27.5 -43.84375 C 27.582031 -43.53125 27.742188 -43.234375 27.984375 -42.953125 C 28.234375 -42.671875 28.457031 -42.425781 28.65625 -42.21875 C 28.851562 -42.019531 29.191406 -41.800781 29.671875 -41.5625 C 30.148438 -41.320312 30.53125 -41.140625 30.8125 -41.015625 C 31.09375 -40.898438 31.550781 -40.722656 32.1875 -40.484375 C 32.832031 -40.242188 33.316406 -40.0625 33.640625 -39.9375 C 33.960938 -39.820312 34.503906 -39.644531 35.265625 -39.40625 C 36.023438 -39.164062 36.601562 -39.003906 37 -38.921875 C 39.488281 -38.203125 41.648438 -37.398438 43.484375 -36.515625 C 45.328125 -35.640625 47.269531 -34.441406 49.3125 -32.921875 C 51.351562 -31.398438 52.9375 -29.476562 54.0625 -27.15625 C 55.1875 -24.832031 55.75 -22.1875 55.75 -19.21875 C 55.75 -5.207031 46.015625 1.796875 26.546875 1.796875 C 22.140625 1.796875 17.953125 1.117188 13.984375 -0.234375 C 10.023438 -1.597656 7.164062 -2.960938 5.40625 -4.328125 L 2.765625 -6.484375 L 11.40625 -21.03125 C 12.050781 -20.46875 12.894531 -19.804688 13.9375 -19.046875 C 14.976562 -18.285156 16.859375 -17.242188 19.578125 -15.921875 C 22.304688 -14.597656 24.671875 -13.9375 26.671875 -13.9375 C 31.078125 -13.9375 33.28125 -15.414062 33.28125 -18.375 C 33.28125 -19.738281 32.71875 -20.800781 31.59375 -21.5625 C 30.476562 -22.320312 28.578125 -23.179688 25.890625 -24.140625 C 23.203125 -25.109375 21.097656 -25.992188 19.578125 -26.796875 C 15.734375 -28.796875 12.691406 -31.054688 10.453125 -33.578125 C 8.210938 -36.097656 7.09375 -39.441406 7.09375 -43.609375 C 7.09375 -49.859375 9.515625 -54.722656 14.359375 -58.203125 C 19.203125 -61.691406 25.75 -63.4375 34 -63.4375 Z M 34 -63.4375 "/></g></g></g><g fill="#000000" fill-opacity="1"><g transform="translate(384.393251, 459.492632)"><g><path d="M 40 -46.015625 C 36 -46.015625 32.554688 -44.53125 29.671875 -41.5625 C 26.785156 -38.601562 25.34375 -35.039062 25.34375 -30.875 C 25.34375 -26.632812 26.785156 -23.03125 29.671875 -20.0625 C 32.554688 -17.101562 36 -15.625 40 -15.625 C 41.925781 -15.625 43.75 -15.863281 45.46875 -16.34375 C 47.195312 -16.820312 48.457031 -17.300781 49.25 -17.78125 L 50.34375 -18.5 L 57.546875 -3.71875 C 56.984375 -3.320312 56.203125 -2.820312 55.203125 -2.21875 C 54.203125 -1.625 51.921875 -0.804688 48.359375 0.234375 C 44.796875 1.273438 40.972656 1.796875 36.890625 1.796875 C 27.835938 1.796875 19.882812 -1.382812 13.03125 -7.75 C 6.1875 -14.113281 2.765625 -21.742188 2.765625 -30.640625 C 2.765625 -39.609375 6.1875 -47.316406 13.03125 -53.765625 C 19.882812 -60.210938 27.835938 -63.4375 36.890625 -63.4375 C 40.972656 -63.4375 44.734375 -62.953125 48.171875 -61.984375 C 51.617188 -61.023438 54.0625 -60.066406 55.5 -59.109375 L 57.546875 -57.671875 L 50.34375 -43.125 C 47.695312 -45.050781 44.25 -46.015625 40 -46.015625 Z M 40 -46.015625 "/></g></g></g><g fill="#000000" fill-opacity="1"><g transform="translate(437.491572, 459.492632)"><g><path d="M 11.40625 -7.625 C 5.644531 -13.914062 2.765625 -21.625 2.765625 -30.75 C 2.765625 -39.882812 5.644531 -47.613281 11.40625 -53.9375 C 17.175781 -60.269531 24.507812 -63.4375 33.40625 -63.4375 C 41.570312 -63.4375 48.296875 -60.875 53.578125 -55.75 L 53.578125 -61.625 L 74.84375 -61.625 L 74.84375 0 L 53.828125 0 L 53.828125 -6.96875 L 53.578125 -6.96875 C 48.296875 -1.125 41.570312 1.796875 33.40625 1.796875 C 24.507812 1.796875 17.175781 -1.34375 11.40625 -7.625 Z M 29.484375 -41.203125 C 26.722656 -38.484375 25.34375 -35 25.34375 -30.75 C 25.34375 -26.507812 26.664062 -23.046875 29.3125 -20.359375 C 31.957031 -17.679688 35.441406 -16.34375 39.765625 -16.34375 C 43.929688 -16.34375 47.351562 -17.703125 50.03125 -20.421875 C 52.71875 -23.148438 54.0625 -26.59375 54.0625 -30.75 C 54.0625 -35 52.679688 -38.484375 49.921875 -41.203125 C 47.160156 -43.929688 43.773438 -45.296875 39.765625 -45.296875 C 35.679688 -45.296875 32.253906 -43.929688 29.484375 -41.203125 Z M 29.484375 -41.203125 "/></g></g></g><g fill="#000000" fill-opacity="1"><g transform="translate(513.655477, 459.492632)"><g><path d="M 70.640625 -54 C 76.410156 -47.71875 79.296875 -40.007812 79.296875 -30.875 C 79.296875 -21.75 76.410156 -14.019531 70.640625 -7.6875 C 64.878906 -1.363281 57.550781 1.796875 48.65625 1.796875 C 40.488281 1.796875 33.757812 -0.765625 28.46875 -5.890625 L 28.46875 31.234375 L 7.203125 31.234375 L 7.203125 -61.625 L 28.234375 -61.625 L 28.234375 -54.65625 L 28.46875 -54.65625 C 33.757812 -60.507812 40.488281 -63.4375 48.65625 -63.4375 C 57.550781 -63.4375 64.878906 -60.289062 70.640625 -54 Z M 52.5625 -20.421875 C 55.320312 -23.148438 56.703125 -26.632812 56.703125 -30.875 C 56.703125 -35.125 55.378906 -38.585938 52.734375 -41.265625 C 50.097656 -43.953125 46.617188 -45.296875 42.296875 -45.296875 C 38.128906 -45.296875 34.703125 -43.929688 32.015625 -41.203125 C 29.335938 -38.484375 28 -35.039062 28 -30.875 C 28 -26.632812 29.378906 -23.148438 32.140625 -20.421875 C 34.898438 -17.703125 38.285156 -16.34375 42.296875 -16.34375 C 46.378906 -16.34375 49.800781 -17.703125 52.5625 -20.421875 Z M 52.5625 -20.421875 "/></g></g></g><g fill="#000000" fill-opacity="1"><g transform="translate(589.819382, 459.492632)"><g><path d="M 69.5625 -27.875 L 24.875 -27.875 C 24.875 -23.550781 26.273438 -20.347656 29.078125 -18.265625 C 31.878906 -16.179688 34.921875 -15.140625 38.203125 -15.140625 C 41.648438 -15.140625 44.375 -15.597656 46.375 -16.515625 C 48.375 -17.441406 50.65625 -19.265625 53.21875 -21.984375 L 68.59375 -14.296875 C 62.1875 -3.566406 51.535156 1.796875 36.640625 1.796875 C 27.347656 1.796875 19.378906 -1.382812 12.734375 -7.75 C 6.085938 -14.113281 2.765625 -21.78125 2.765625 -30.75 C 2.765625 -39.726562 6.085938 -47.421875 12.734375 -53.828125 C 19.378906 -60.234375 27.347656 -63.4375 36.640625 -63.4375 C 46.410156 -63.4375 54.359375 -60.613281 60.484375 -54.96875 C 66.617188 -49.320312 69.6875 -41.25 69.6875 -30.75 C 69.6875 -29.3125 69.644531 -28.351562 69.5625 -27.875 Z M 25.46875 -39.640625 L 48.890625 -39.640625 C 48.410156 -42.847656 47.148438 -45.3125 45.109375 -47.03125 C 43.066406 -48.757812 40.445312 -49.625 37.25 -49.625 C 33.71875 -49.625 30.910156 -48.703125 28.828125 -46.859375 C 26.742188 -45.015625 25.625 -42.609375 25.46875 -39.640625 Z M 25.46875 -39.640625 "/></g></g></g><g fill="#000000" fill-opacity="1"><g transform="translate(656.372621, 459.492632)"><g><path d="M 34 -63.4375 C 37.519531 -63.4375 41.003906 -63.035156 44.453125 -62.234375 C 47.898438 -61.429688 50.460938 -60.628906 52.140625 -59.828125 L 54.65625 -58.625 L 47.703125 -44.6875 C 42.890625 -47.25 38.320312 -48.53125 34 -48.53125 C 31.59375 -48.53125 29.890625 -48.269531 28.890625 -47.75 C 27.890625 -47.226562 27.390625 -46.25 27.390625 -44.8125 C 27.390625 -44.488281 27.425781 -44.164062 27.5 -43.84375 C 27.582031 -43.53125 27.742188 -43.234375 27.984375 -42.953125 C 28.234375 -42.671875 28.457031 -42.425781 28.65625 -42.21875 C 28.851562 -42.019531 29.191406 -41.800781 29.671875 -41.5625 C 30.148438 -41.320312 30.53125 -41.140625 30.8125 -41.015625 C 31.09375 -40.898438 31.550781 -40.722656 32.1875 -40.484375 C 32.832031 -40.242188 33.316406 -40.0625 33.640625 -39.9375 C 33.960938 -39.820312 34.503906 -39.644531 35.265625 -39.40625 C 36.023438 -39.164062 36.601562 -39.003906 37 -38.921875 C 39.488281 -38.203125 41.648438 -37.398438 43.484375 -36.515625 C 45.328125 -35.640625 47.269531 -34.441406 49.3125 -32.921875 C 51.351562 -31.398438 52.9375 -29.476562 54.0625 -27.15625 C 55.1875 -24.832031 55.75 -22.1875 55.75 -19.21875 C 55.75 -5.207031 46.015625 1.796875 26.546875 1.796875 C 22.140625 1.796875 17.953125 1.117188 13.984375 -0.234375 C 10.023438 -1.597656 7.164062 -2.960938 5.40625 -4.328125 L 2.765625 -6.484375 L 11.40625 -21.03125 C 12.050781 -20.46875 12.894531 -19.804688 13.9375 -19.046875 C 14.976562 -18.285156 16.859375 -17.242188 19.578125 -15.921875 C 22.304688 -14.597656 24.671875 -13.9375 26.671875 -13.9375 C 31.078125 -13.9375 33.28125 -15.414062 33.28125 -18.375 C 33.28125 -19.738281 32.71875 -20.800781 31.59375 -21.5625 C 30.476562 -22.320312 28.578125 -23.179688 25.890625 -24.140625 C 23.203125 -25.109375 21.097656 -25.992188 19.578125 -26.796875 C 15.734375 -28.796875 12.691406 -31.054688 10.453125 -33.578125 C 8.210938 -36.097656 7.09375 -39.441406 7.09375 -43.609375 C 7.09375 -49.859375 9.515625 -54.722656 14.359375 -58.203125 C 19.203125 -61.691406 25.75 -63.4375 34 -63.4375 Z M 34 -63.4375 "/></g></g></g></svg>